#!OML:ASF G:\JayActor3\Patient Classification 1\Patient 1\Session 2\male.ASF
:FULLY-SPECIFIED
:DEGREES
2086
root -37.7157 16.5927 -3.36244 1983.46 55.6423 -538.83
lowerback 2.31398 -1.04624 -5.04689
upperback 2.50012 -1.295 -3.0309
thorax 1.32255 -0.640044 -0.273545
lowerneck -2.6965 -10.6736 -11.5575
upperneck -2.99497 -13.8473 22.6465
head 2.12683 -6.6274 8.22052
rclavicle 5.70512e-014 2.54444e-014
rhumerus -30.5296 7.79832 -84.7291
rradius 36.6658
rwrist -9.68029
rhand -22.7469 4.33605
rfingers 7.12502
rthumb 3.68756 -25.6118
lclavicle 5.70512e-014 2.54444e-014
lhumerus -32.4564 9.40109 72.9394
lradius 24.6158
lwrist 7.16639
lhand -27.5352 16.4245
lfingers 7.12502
lthumb -0.937008 46.4022
rfemur -17.6555 -7.59895 24.6672
rtibia 54.5636
rfoot -35.4445 -19.1128
rtoes 22.3693
lfemur -10.4448 17.3796 -21.3693
ltibia 28.8585
lfoot -30.0989 24.2023
ltoes 13.0931
2087
root -37.7575 16.5883 -3.36218 1983.59 56.8089 -538.809
lowerback 2.20373 -1.05003 -4.92874
upperback 2.43249 -1.30055 -3.01386
thorax 1.31171 -0.642915 -0.322816
lowerneck -2.82499 -10.5498 -11.3209
upperneck -2.87218 -13.6869 22.5184
head 2.12701 -6.53935 8.14811
rclavicle 2.74323e-014 1.59028e-014
rhumerus -30.5306 6.98402 -84.3104
rradius 36.1691
rwrist -9.56806
rhand -22.6887 4.25268
rfingers 7.12502
rthumb 3.74376 -25.6942
lclavicle 2.74323e-014 1.59028e-014
lhumerus -32.1978 8.21015 73.8349
lradius 26.4748
lwrist 8.94665
lhand -27.274 16.2879
lfingers 7.12502
lthumb -0.684724 46.2665
rfemur -17.169 -8.09335 24.6386
rtibia 53.3562
rfoot -35.4592 -19.0456
rtoes 21.8292
lfemur -10.7143 17.7361 -21.584
ltibia 29.0795
lfoot -30.6488 24.6185
ltoes 13.5585
2088
root -37.7979 16.5833 -3.36054 1983.71 57.9337 -538.798
lowerback 2.10937 -1.0538 -4.80706
upperback 2.36086 -1.30705 -3.00366
thorax 1.28769 -0.645727 -0.380731
lowerneck -2.96658 -10.4151 -11.0881
upperneck -2.73111 -13.5139 22.3935
head 2.13374 -6.44335 8.07739
rclavicle -6.54002e-014 4.6118e-014
rhumerus -30.5822 6.19336 -83.928
rradius 35.706
rwrist -9.45123
rhand -22.6103 4.16598
rfingers 7.12502
rthumb 3.81948 -25.7795
lclavicle -6.54002e-014 4.6118e-014
lhumerus -31.9526 7.12684 74.6118
lradius 28.3399
lwrist 10.5738
lhand -26.9826 15.9423
lfingers 7.12502
lthumb -0.403272 45.9217
rfemur -16.6881 -8.50648 24.5981
rtibia 52.0833
rfoot -35.5242 -18.9152
rtoes 20.6705
lfemur -11.0065 18.084 -21.7977
ltibia 29.3092
lfoot -31.026 25.1726
ltoes 13.5578
2089
root -37.8372 16.5785 -3.35823 1983.81 59.0195 -538.811
lowerback 2.02017 -1.05911 -4.70023
upperback 2.29869 -1.31544 -2.98607
thorax 1.27118 -0.6499 -0.422847
lowerneck -3.13562 -10.2726 -10.8724
upperneck -2.5811 -13.3305 22.2615
head 2.14731 -6.34027 8.00652
rclavicle -2.18663e-015 -2.70347e-014
rhumerus -30.6621 5.47418 -83.5644
rradius 35.2713
rwrist -9.30907
rhand -22.5324 4.07063
rfingers 7.12502
rthumb 3.89468 -25.8735
lclavicle -2.18663e-015 -2.70347e-014
lhumerus -31.703 6.12914 75.3269
lradius 30.2389
lwrist 12.0894
lhand -26.7157 15.6527
lfingers 7.12502
lthumb -0.145494 45.6324
rfemur -16.217 -8.83255 24.5309
rtibia 50.7642
rfoot -35.6627 -18.672
rtoes 19.1449
lfemur -11.3066 18.4044 -22.0195
ltibia 29.5369
lfoot -31.2757 25.833
ltoes 13.2582
2090
root -37.875 16.574 -3.35485 1983.89 60.0688 -538.832
lowerback 1.94502 -1.06539 -4.59784
upperback 2.24785 -1.32517 -2.96584
thorax 1.25874 -0.65483 -0.459704
lowerneck -3.32744 -10.1219 -10.6693
upperneck -2.42549 -13.1359 22.1297
head 2.16615 -6.22998 7.93744
rclavicle -1.78906e-014 3.49861e-014
rhumerus -30.773 4.81566 -83.2319
rradius 34.8641
rwrist -9.14144
rhand -22.488 4.00104
rfingers 7.12502
rthumb 3.93752 -25.9423
lclavicle -1.78906e-014 3.49861e-014
lhumerus -31.4432 5.20052 75.9721
lradius 32.1646
lwrist 13.4995
lhand -26.4898 15.5123
lfingers 7.12502
lthumb 0.0726722 45.4921
rfemur -15.7452 -9.05338 24.4495
rtibia 49.4232
rfoot -35.8009 -18.3835
rtoes 17.3891
lfemur -11.5941 18.6992 -22.2309
ltibia 29.7573
lfoot -31.3854 26.5942
ltoes 12.6348
2091
root -37.9115 16.57 -3.35089 1983.94 61.0893 -538.865
lowerback 1.88178 -1.06511 -4.50137
upperback 2.21339 -1.32581 -2.94117
thorax 1.25656 -0.65546 -0.488777
lowerneck -3.51951 -9.96738 -10.4759
upperneck -2.28773 -12.9338 21.9981
head 2.18017 -6.11663 7.87107
rclavicle 2.88238e-014 4.77083e-015
rhumerus -30.909 4.20527 -82.9177
rradius 34.4805
rwrist -8.94656
rhand -22.5149 3.9734
rfingers 7.12502
rthumb 3.9116 -25.9704
lclavicle 2.88238e-014 4.77083e-015
lhumerus -31.1594 4.33235 76.5611
lradius 34.0891
lwrist 14.7878
lhand -26.2918 15.4568
lfingers 7.12502
lthumb 0.26393 45.4364
rfemur -15.2697 -9.17191 24.3478
rtibia 48.0909
rfoot -35.957 -18.0077
rtoes 15.9253
lfemur -11.851 18.948 -22.4328
ltibia 29.9621
lfoot -31.4423 27.3979
ltoes 11.9117
